<?xml version="1.0" standalone="no"?><!DOCTYPE svg PUBLIC "-//W3C//DTD SVG 1.1//EN" "http://www.w3.org/Graphics/SVG/1.1/DTD/svg11.dtd"><svg t="1561543122267" class="icon" viewBox="0 0 1024 1024" version="1.1" xmlns="http://www.w3.org/2000/svg" p-id="1058" xmlns:xlink="http://www.w3.org/1999/xlink" width="200" height="200"><defs><style type="text/css"></style></defs><path d="M512 90.125c-232.875 0-421.875 189-421.875 421.875s189 421.875 421.875 421.875c232.875 0 421.875-189 421.875-421.875s-189-421.875-421.875-421.875zM680.75 499.344h-143.438v71.719h113.906c15.188 0 27.422 12.234 27.422 27.422s-12.234 27.422-27.422 27.422h-113.906v127.828c0 15.187-12.234 27.422-27.422 27.422s-27.422-12.234-27.422-27.422v-127.828h-109.688c-15.188 0-27.422-12.234-27.422-27.422s12.234-27.422 27.422-27.422h109.688v-71.719h-139.219c-15.188 0-27.422-12.234-27.422-27.422s12.234-27.422 27.422-27.422h109.688l-118.125-126.984c-10.547-11.391-9.703-28.687 1.688-39.234s29.109-9.703 39.656 1.688l134.156 145.547 133.734-145.547c10.547-11.391 28.266-12.234 39.656-1.688s12.234 27.422 1.688 39.234l-117.703 126.984h113.063c15.188 0 27.422 12.234 27.422 27.422s-12.656 27.422-27.422 27.422z" p-id="1059" fill="#4873d3"></path></svg>